<svg width="16" height="17" viewBox="0 0 16 17" fill="none" xmlns="http://www.w3.org/2000/svg">
<g id="users">
<path id="Vector" d="M10.6666 14.5V13.1667C10.6666 12.4594 10.3856 11.7811 9.88554 11.281C9.38544 10.781 8.70716 10.5 7.99992 10.5H3.99992C3.29267 10.5 2.6144 10.781 2.1143 11.281C1.6142 11.7811 1.33325 12.4594 1.33325 13.1667V14.5" stroke="#64748B" stroke-width="1.25" stroke-linecap="round" stroke-linejoin="round"/>
<path id="Vector_2" d="M5.99992 7.83333C7.47268 7.83333 8.66659 6.63943 8.66659 5.16667C8.66659 3.69391 7.47268 2.5 5.99992 2.5C4.52716 2.5 3.33325 3.69391 3.33325 5.16667C3.33325 6.63943 4.52716 7.83333 5.99992 7.83333Z" stroke="#64748B" stroke-width="1.25" stroke-linecap="round" stroke-linejoin="round"/>
<path id="Vector_3" d="M14.6667 14.4998V13.1664C14.6663 12.5756 14.4697 12.0016 14.1077 11.5346C13.7457 11.0677 13.2388 10.7341 12.6667 10.5864" stroke="#64748B" stroke-width="1.25" stroke-linecap="round" stroke-linejoin="round"/>
<path id="Vector_4" d="M10.6667 2.58643C11.2404 2.73329 11.7488 3.06689 12.1118 3.53463C12.4749 4.00237 12.672 4.57765 12.672 5.16976C12.672 5.76187 12.4749 6.33715 12.1118 6.80489C11.7488 7.27262 11.2404 7.60623 10.6667 7.75309" stroke="#64748B" stroke-width="1.25" stroke-linecap="round" stroke-linejoin="round"/>
</g>
</svg>
