<svg width="87" height="102" viewBox="0 0 87 102" fill="none" xmlns="http://www.w3.org/2000/svg">
<path fill-rule="evenodd" clip-rule="evenodd" d="M66.6718 14L75.9737 81.8427L76.8094 88.649C77.0786 90.8417 75.5194 92.8375 73.3267 93.1067L14.7665 100.297C12.5738 100.566 10.578 99.007 10.3088 96.8143L1.29306 23.3868C1.15844 22.2904 1.93807 21.2925 3.03441 21.1579C3.04133 21.1571 3.04826 21.1563 3.0552 21.1555L7.91356 20.6105M11.8421 20.1698L16.4291 19.6553L11.8421 20.1698Z" fill="white"/>
<path d="M67.9102 13.8302C67.8165 13.1463 67.186 12.6678 66.502 12.7616C65.8181 12.8554 65.3396 13.4859 65.4334 14.1698L67.9102 13.8302ZM75.9737 81.8427L77.2144 81.6904C77.2137 81.6846 77.2129 81.6788 77.2121 81.6729L75.9737 81.8427ZM76.8094 88.649L78.0501 88.4967L76.8094 88.649ZM73.3267 93.1067L73.479 94.3474L73.3267 93.1067ZM14.7665 100.297L14.9188 101.538L14.7665 100.297ZM10.3088 96.8143L11.5495 96.662L10.3088 96.8143ZM3.0552 21.1555L3.19454 22.3977L3.0552 21.1555ZM8.05291 21.8527C8.73896 21.7758 9.23273 21.1572 9.15577 20.4712C9.07882 19.7851 8.46027 19.2913 7.77422 19.3683L8.05291 21.8527ZM11.7028 18.9276C11.0167 19.0046 10.5229 19.6231 10.5999 20.3092C10.6768 20.9952 11.2954 21.489 11.9814 21.412L11.7028 18.9276ZM16.5685 20.8975C17.2545 20.8205 17.7483 20.202 17.6714 19.5159C17.5944 18.8299 16.9759 18.3361 16.2898 18.4131L16.5685 20.8975ZM65.4334 14.1698L74.7353 82.0125L77.2121 81.6729L67.9102 13.8302L65.4334 14.1698ZM74.733 81.9951L75.5687 88.8014L78.0501 88.4967L77.2144 81.6904L74.733 81.9951ZM75.5687 88.8014C75.7538 90.3088 74.6818 91.6809 73.1744 91.866L73.479 94.3474C76.3569 93.994 78.4035 91.3746 78.0501 88.4967L75.5687 88.8014ZM73.1744 91.866L14.6141 99.0563L14.9188 101.538L73.479 94.3474L73.1744 91.866ZM14.6141 99.0563C13.1067 99.2414 11.7346 98.1694 11.5495 96.662L9.06814 96.9666C9.4215 99.8445 12.0409 101.891 14.9188 101.538L14.6141 99.0563ZM11.5495 96.662L2.53374 23.2344L0.0523724 23.5391L9.06814 96.9666L11.5495 96.662ZM2.53374 23.2344C2.48326 22.8233 2.77562 22.4491 3.18675 22.3986L2.88207 19.9173C1.10053 20.136 -0.166374 21.7576 0.0523724 23.5391L2.53374 23.2344ZM3.18675 22.3986C3.18934 22.3983 3.19194 22.398 3.19454 22.3977L2.91585 19.9133C2.90459 19.9145 2.89333 19.9159 2.88207 19.9173L3.18675 22.3986ZM3.19454 22.3977L8.05291 21.8527L7.77422 19.3683L2.91585 19.9133L3.19454 22.3977ZM11.9814 21.412L16.5685 20.8975L16.2898 18.4131L11.7028 18.9276L11.9814 21.412ZM16.2898 18.4131L11.7028 18.9276L11.9814 21.412L16.5685 20.8975L16.2898 18.4131Z" fill="#E7CC1F"/>
<path fill-rule="evenodd" clip-rule="evenodd" d="M64.14 18.2692L72.5595 79.7529L73.3169 85.9212C73.5609 87.9083 72.1669 89.7146 70.2033 89.9557L17.7613 96.3948C15.7977 96.6359 14.0081 95.2204 13.7641 93.2333L5.6141 26.8568C5.47949 25.7605 6.25912 24.7626 7.35545 24.628L13.8431 23.8314" fill="#FEFEE8"/>
<path d="M23.6719 1.25H69.2286C69.9577 1.25 70.6569 1.5395 71.1726 2.05485L84.6158 15.4898C85.1319 16.0056 85.4219 16.7053 85.4219 17.4349V80C85.4219 81.5188 84.1907 82.75 82.6719 82.75H23.6719C22.1531 82.75 20.9219 81.5188 20.9219 80V4C20.9219 2.48122 22.1531 1.25 23.6719 1.25Z" fill="white" stroke="#E7CC1F" stroke-width="2.5"/>
<path d="M69.6719 2.40283V14C69.6719 15.6569 71.015 17 72.6719 17H80.6055" stroke="#E7CC1F" stroke-width="2.5" stroke-linecap="round" stroke-linejoin="round"/>
<path d="M31 68H57M31 17H57H31ZM31 29H74H31ZM31 42H74H31ZM31 55H74H31Z" stroke="#FEF075" stroke-width="2.5" stroke-linecap="round" stroke-linejoin="round"/>
</svg>
